<svg width="27" height="18" viewBox="0 0 27 18" fill="none" xmlns="http://www.w3.org/2000/svg">
<path d="M9.73255 17.55H2.19767C0.992092 17.55 0 16.523 0 15.275V2.275C0 1.027 0.992092 0 2.19767 0H8.47674C11.0763 0 13.186 2.184 13.186 4.875C13.186 6.214 12.6586 7.423 11.8172 8.30699C13.3744 9.09999 14.4418 10.764 14.4418 12.675C14.4418 15.366 12.3321 17.55 9.73255 17.55ZM1.88372 9.74999V15.275C1.88372 15.457 2.02186 15.6 2.19767 15.6H9.73255C11.2898 15.6 12.5581 14.287 12.5581 12.675C12.5581 11.063 11.2898 9.74999 9.73255 9.74999H1.88372ZM1.88372 7.79999H8.47674C10.0339 7.79999 11.3023 6.487 11.3023 4.875C11.3023 3.263 10.0339 1.95 8.47674 1.95H2.19767C2.02186 1.95 1.88372 2.093 1.88372 2.275V7.79999ZM23.1321 17.55H21.0349C17.7446 17.55 15.0698 14.781 15.0698 11.375C15.0698 7.96899 17.7446 5.2 21.0349 5.2C24.3251 5.2 27 7.96899 27 11.375C27 11.908 26.573 12.35 26.0581 12.35H17.0665C17.4935 14.209 19.1135 15.6 21.0349 15.6H23.1321C23.647 15.6 24.0739 16.042 24.0739 16.575C24.0739 17.108 23.647 17.55 23.1321 17.55ZM17.0665 10.4H25.0158C24.8023 9.47604 24.2949 8.65322 23.5752 8.06378C22.8554 7.47434 21.9652 7.1525 21.0474 7.15C20.1282 7.15234 19.2364 7.47386 18.5146 8.0631C17.7929 8.65233 17.2829 9.47521 17.0665 10.4ZM22.9186 3.9H19.1511C18.6363 3.9 18.2093 3.458 18.2093 2.925C18.2093 2.392 18.6363 1.95 19.1511 1.95H22.9186C23.4335 1.95 23.8604 2.392 23.8604 2.925C23.8604 3.458 23.4335 3.9 22.9186 3.9Z" fill="white"/>
</svg>
