<svg width="28" height="32" viewBox="0 0 28 32" fill="none" xmlns="http://www.w3.org/2000/svg">
<path d="M14 0C10.287 0 6.72601 1.34856 4.10051 3.74902C1.475 6.14948 0 9.4052 0 12.8C0 21.4399 12.3375 31.1999 12.8625 31.6159C13.1795 31.8638 13.5829 32 14 32C14.4171 32 14.8205 31.8638 15.1375 31.6159C15.75 31.1999 28 21.4399 28 12.8C28 9.4052 26.525 6.14948 23.8995 3.74902C21.274 1.34856 17.713 0 14 0ZM14 28.2399C10.2725 25.0399 3.5 18.1439 3.5 12.8C3.5 10.2539 4.60625 7.8121 6.57538 6.01176C8.54451 4.21141 11.2152 3.19999 14 3.19999C16.7848 3.19999 19.4555 4.21141 21.4246 6.01176C23.3938 7.8121 24.5 10.2539 24.5 12.8C24.5 18.1439 17.7275 25.0559 14 28.2399ZM14 6.39998C12.6155 6.39998 11.2622 6.77533 10.111 7.47857C8.95987 8.18181 8.06266 9.18135 7.53284 10.3508C7.00303 11.5202 6.86441 12.8071 7.1345 14.0485C7.4046 15.29 8.07128 16.4304 9.05025 17.3254C10.0292 18.2205 11.2765 18.83 12.6344 19.077C13.9922 19.3239 15.3997 19.1972 16.6788 18.7128C17.9579 18.2284 19.0511 17.4081 19.8203 16.3556C20.5895 15.3031 21 14.0658 21 12.8C21 11.1026 20.2625 9.47472 18.9497 8.27449C17.637 7.07426 15.8565 6.39998 14 6.39998ZM14 15.9999C13.3078 15.9999 12.6311 15.8123 12.0555 15.4607C11.4799 15.109 11.0313 14.6093 10.7664 14.0245C10.5015 13.4398 10.4322 12.7964 10.5673 12.1757C10.7023 11.5549 11.0356 10.9848 11.5251 10.5372C12.0146 10.0897 12.6383 9.78493 13.3172 9.66146C13.9961 9.53798 14.6999 9.60135 15.3394 9.84355C15.9789 10.0858 16.5256 10.4959 16.9101 11.0221C17.2947 11.5484 17.5 12.1671 17.5 12.8C17.5 13.6486 17.1313 14.4626 16.4749 15.0627C15.8185 15.6628 14.9283 15.9999 14 15.9999Z" fill="white"/>
</svg>
