<svg width="27" height="27" viewBox="0 0 27 27" fill="none" xmlns="http://www.w3.org/2000/svg">
<path d="M19.1566 0H7.84355C2.92952 0 0 2.92952 0 7.84355V19.1431C0 24.0706 2.92952 27.0002 7.84355 27.0002H19.1431C24.0571 27.0002 26.9867 24.0706 26.9867 19.1566V7.84355C27.0002 2.92952 24.0706 0 19.1566 0ZM13.5001 18.7381C10.6111 18.7381 8.26205 16.3891 8.26205 13.5001C8.26205 10.6111 10.6111 8.26205 13.5001 8.26205C16.3891 8.26205 18.7381 10.6111 18.7381 13.5001C18.7381 16.3891 16.3891 18.7381 13.5001 18.7381ZM21.4921 6.58804C21.4246 6.75004 21.3301 6.89854 21.2086 7.03354C21.0736 7.15504 20.9251 7.24954 20.7631 7.31704C20.5174 7.42133 20.2462 7.45006 19.9842 7.39957C19.7221 7.34907 19.481 7.22165 19.2916 7.03354C19.1701 6.89854 19.0756 6.75004 19.0081 6.58804C18.9388 6.42579 18.9021 6.25147 18.9001 6.07504C18.9001 5.89954 18.9406 5.72403 19.0081 5.56203C19.0756 5.38653 19.1701 5.25153 19.2916 5.11653C19.6021 4.80603 20.0746 4.65753 20.5066 4.75203C20.6011 4.76553 20.6821 4.79253 20.7631 4.83303C20.8441 4.86003 20.9251 4.90053 21.0061 4.95453C21.0736 4.99503 21.1411 5.06253 21.2086 5.11653C21.3301 5.25153 21.4246 5.38653 21.4921 5.56203C21.5596 5.72403 21.6001 5.89954 21.6001 6.07504C21.6001 6.25054 21.5596 6.42604 21.4921 6.58804Z" fill="white"/>
</svg>
