<svg width="27" height="27" viewBox="0 0 27 27" fill="none" xmlns="http://www.w3.org/2000/svg">
<path fill-rule="evenodd" clip-rule="evenodd" d="M18.7335 25.5381C18.7741 25.7542 18.6525 25.9838 18.4499 26.0649C16.9237 26.6727 15.2489 26.9968 13.52 26.9968C10.5351 26.9968 7.77975 26.0379 5.55118 24.3901C5.36209 24.255 5.30806 23.9849 5.42962 23.7823C6.17248 22.4586 9.07638 18.2041 15.492 15.8269C15.7351 15.7324 16.0052 15.8539 16.0863 16.0971C17.6935 20.4056 18.4499 24.0524 18.7335 25.5381ZM26.7564 16.0403C26.137 19.3073 24.3213 22.2258 21.6644 24.2253C21.3808 24.4414 20.9756 24.2793 20.9081 23.9416C20.6244 22.4829 19.9356 19.3359 18.612 15.5946C18.5174 15.311 18.7065 15.0003 19.0037 14.9598C22.3668 14.5546 25.3112 15.2029 26.4187 15.5001C26.6483 15.5811 26.7969 15.8107 26.7564 16.0403ZM26.4458 13.2458C25.0681 13.0027 21.5564 12.4895 17.9637 12.8812C17.7476 12.9082 17.5585 12.7866 17.4639 12.584C17.4099 12.4625 17.3694 12.3409 17.3153 12.2193C17.0992 11.7196 16.8696 11.2064 16.64 10.7066C16.5185 10.4635 16.64 10.1664 16.8831 10.0583C20.665 8.42401 22.772 6.317 23.5959 5.37154C23.7985 5.14193 24.1496 5.15544 24.3387 5.39855C25.9328 7.52045 26.859 10.0689 26.9995 12.7191C27.013 13.0567 26.7429 13.2999 26.4458 13.2458ZM22.1912 3.75481C21.4889 4.60572 19.5169 6.6317 15.7756 8.11741C15.6673 8.16114 15.5467 8.16326 15.437 8.12336C15.3273 8.08346 15.2362 8.00436 15.1813 7.90131C13.8424 5.5007 12.3678 3.17832 10.7647 0.945456C10.5621 0.661819 10.7242 0.256624 11.0618 0.202597C11.8452 0.0675324 12.6691 0 13.5065 0C16.7751 0 19.787 1.16156 22.1237 3.1065C22.3263 3.25507 22.3533 3.55221 22.1912 3.75481ZM12.1694 9.22225C7.0504 10.5054 2.52572 10.6809 0.877923 10.708C0.567274 10.708 0.337663 10.4108 0.418702 10.1137C1.39117 6.33185 3.98442 3.17133 7.40157 1.42899C7.60417 1.32094 7.86079 1.38847 7.99586 1.57756C8.69819 2.55003 10.6026 5.29185 12.4665 8.51991C12.6151 8.79004 12.48 9.14121 12.1694 9.22225ZM14.7356 12.9487C14.8572 13.2053 14.7086 13.516 14.4385 13.6105C8.45508 15.5419 4.87585 20.3368 3.79533 21.9846C3.61975 22.2547 3.24156 22.2682 3.03897 22.0251C1.14805 19.7019 0 17.0412 0 13.8131V13.57C0 13.2999 0.216104 13.0838 0.486234 13.0973C2.18805 13.1648 7.73923 12.9352 13.5065 11.2739C13.7226 11.2064 13.9657 11.3144 14.0603 11.517C14.2899 11.9897 14.5195 12.4625 14.7356 12.9487Z" fill="white"/>
</svg>
