<svg width="32" height="26" viewBox="0 0 32 26" fill="none" xmlns="http://www.w3.org/2000/svg">
<path d="M27.2 0H4.8C3.52696 0 2.30606 0.513615 1.40589 1.42785C0.505713 2.34209 0 3.58207 0 4.875V21.125C0 22.4179 0.505713 23.6579 1.40589 24.5721C2.30606 25.4864 3.52696 26 4.8 26H27.2C28.473 26 29.6939 25.4864 30.5941 24.5721C31.4943 23.6579 32 22.4179 32 21.125V4.875C32 3.58207 31.4943 2.34209 30.5941 1.42785C29.6939 0.513615 28.473 0 27.2 0ZM26.128 3.25L16 10.9688L5.872 3.25H26.128ZM27.2 22.75H4.8C4.37565 22.75 3.96869 22.5788 3.66863 22.274C3.36857 21.9693 3.2 21.556 3.2 21.125V5.28125L15.04 14.3C15.317 14.511 15.6538 14.625 16 14.625C16.3462 14.625 16.683 14.511 16.96 14.3L28.8 5.28125V21.125C28.8 21.556 28.6314 21.9693 28.3314 22.274C28.0313 22.5788 27.6243 22.75 27.2 22.75Z" fill="white"/>
</svg>
