<svg width="118" height="22" viewBox="0 0 118 22" fill="none" xmlns="http://www.w3.org/2000/svg">
<path d="M11.1321 16.9987L18.0117 21.1509L16.186 13.3251L22.2641 8.05962L14.2602 7.38057L11.1321 0L8.00396 7.38057L0 8.05962L6.07811 13.3251L4.25245 21.1509L11.1321 16.9987Z" fill="#FDE486"/>
<path d="M35.6226 16.9987L42.5023 21.1509L40.6766 13.3251L46.7547 8.05962L38.7508 7.38057L35.6226 0L32.4945 7.38057L24.4906 8.05962L30.5687 13.3251L28.743 21.1509L35.6226 16.9987Z" fill="#FDE486"/>
<path d="M60.1132 16.9987L66.9928 21.1509L65.1672 13.3251L71.2453 8.05962L63.2413 7.38057L60.1132 0L56.9851 7.38057L48.9811 8.05962L55.0592 13.3251L53.2336 21.1509L60.1132 16.9987Z" fill="#FDE486"/>
<path d="M84.6038 16.9987L91.4834 21.1509L89.6577 13.3251L95.7358 8.05962L87.7319 7.38057L84.6038 0L81.4756 7.38057L73.4717 8.05962L79.5498 13.3251L77.7241 21.1509L84.6038 16.9987Z" fill="#FDE486"/>
<path d="M106.868 16.9987L113.748 21.1509L111.922 13.3251L118 8.05962L109.996 7.38057L106.868 0L103.74 7.38057L95.7358 8.05962L101.814 13.3251L99.9883 21.1509L106.868 16.9987Z" fill="#FDE486"/>
</svg>
