<svg width="31" height="23" viewBox="0 0 31 23" fill="none" xmlns="http://www.w3.org/2000/svg">
<path d="M10.6563 11.5L5.8125 11.5V8.21432C5.8125 6.40203 7.55017 4.92862 9.6875 4.92862H10.1718C10.3628 4.929 10.552 4.8974 10.7285 4.83561C10.905 4.77383 11.0654 4.68308 11.2004 4.56859C11.3354 4.45409 11.4425 4.31811 11.5153 4.16844C11.5882 4.01877 11.6255 3.85837 11.625 3.69645V1.23217C11.6255 1.07025 11.5882 0.909849 11.5153 0.76018C11.4425 0.610512 11.3354 0.474525 11.2004 0.360031C11.0654 0.245535 10.905 0.154791 10.7285 0.0930061C10.552 0.0312214 10.3628 -0.000385284 10.1718 3.8147e-06H9.6875C4.33517 3.8147e-06 0 3.67589 0 8.21427L0 20.5357C0 21.8962 1.30175 23 2.90625 23L10.6562 23C12.2607 23 13.5625 21.8962 13.5625 20.5357L13.5625 13.9643C13.5625 12.6038 12.2607 11.5 10.6563 11.5ZM28.0938 11.5L23.25 11.5V8.21432C23.25 6.40203 24.9877 4.92862 27.125 4.92862H27.6093C27.8003 4.929 27.9895 4.8974 28.166 4.83561C28.3425 4.77383 28.5029 4.68308 28.6379 4.56859C28.7729 4.45409 28.88 4.31811 28.9528 4.16844C29.0257 4.01877 29.063 3.85837 29.0625 3.69645V1.23217C29.063 1.07025 29.0257 0.909849 28.9528 0.76018C28.88 0.610512 28.7729 0.474525 28.6379 0.360031C28.5029 0.245535 28.3425 0.154791 28.166 0.0930061C27.9895 0.0312214 27.8003 -0.000385284 27.6093 3.8147e-06H27.125C21.7727 3.8147e-06 17.4375 3.67589 17.4375 8.21427L17.4375 20.5357C17.4375 21.8962 18.7393 23 20.3438 23L28.0938 23C29.6982 23 31 21.8962 31 20.5357L31 13.9643C31 12.6038 29.6982 11.5 28.0938 11.5Z" fill="#957461" fill-opacity="0.38"/>
</svg>
