<svg width="31" height="23" viewBox="0 0 31 23" fill="none" xmlns="http://www.w3.org/2000/svg">
<path d="M20.3438 11.5L25.1875 11.5L25.1875 14.7857C25.1875 16.598 23.4498 18.0714 21.3125 18.0714H20.8282C20.6372 18.071 20.448 18.1026 20.2715 18.1644C20.095 18.2262 19.9346 18.3169 19.7996 18.4314C19.6646 18.5459 19.5575 18.6819 19.4847 18.8316C19.4118 18.9812 19.3745 19.1416 19.375 19.3036V21.7678C19.3745 21.9297 19.4118 22.0902 19.4847 22.2398C19.5575 22.3895 19.6646 22.5255 19.7996 22.64C19.9346 22.7545 20.095 22.8452 20.2715 22.907C20.448 22.9688 20.6372 23.0004 20.8282 23H21.3125C26.6648 23 31 19.3241 31 14.7857L31 2.46428C31 1.10379 29.6982 0 28.0938 0L20.3438 0C18.7393 0 17.4375 1.10379 17.4375 2.46428V9.03569C17.4375 10.3962 18.7393 11.5 20.3438 11.5ZM2.90625 11.5H7.75V14.7857C7.75 16.598 6.01233 18.0714 3.875 18.0714H3.39066C3.1997 18.071 3.01053 18.1026 2.83402 18.1644C2.6575 18.2262 2.49713 18.3169 2.3621 18.4314C2.22707 18.5459 2.12005 18.6819 2.04718 18.8316C1.97432 18.9812 1.93704 19.1416 1.9375 19.3036L1.9375 21.7678C1.93704 21.9297 1.97432 22.0902 2.04718 22.2398C2.12005 22.3895 2.22707 22.5255 2.3621 22.64C2.49713 22.7545 2.6575 22.8452 2.83402 22.907C3.01053 22.9688 3.1997 23.0004 3.39066 23H3.875C9.22734 23 13.5625 19.3241 13.5625 14.7857L13.5625 2.46428C13.5625 1.10379 12.2607 0 10.6562 0L2.90625 0C1.30175 0 0 1.10379 0 2.46428L0 9.03569C0 10.3962 1.30175 11.5 2.90625 11.5Z" fill="#957461" fill-opacity="0.38"/>
</svg>
